HIERARCHY
ROOT SpineBase
{
  OFFSET 0.000000 0.000000 0.000000
  CHANNELS 6 Xposition Yposition Zposition Zrotation Xrotation Yrotation
  JOINT SpineMid
  {
    OFFSET 0.000000 30.220864 0.000000
    CHANNELS 3 Zrotation Xrotation Yrotation
    JOINT SpineShoulder
    {
      OFFSET 0.006076 22.461132 -0.715063
      CHANNELS 3 Zrotation Xrotation Yrotation
      JOINT Neck
      {
        OFFSET 0.036341 7.432895 -0.556742
        CHANNELS 3 Zrotation Xrotation Yrotation
        JOINT Head
        {
          OFFSET -0.836806 15.296016 -2.153810
          CHANNELS 3 Zrotation Xrotation Yrotation
          End Site
          {
            OFFSET 0 0 0
          }
        }
      }
      JOINT ShoulderLeft
      {
        OFFSET -18.131381 -2.902056 0.039483
        CHANNELS 3 Zrotation Xrotation Yrotation
        JOINT ElbowLeft
        {
          OFFSET -2.576997 -25.321606 -0.876713
          CHANNELS 3 Zrotation Xrotation Yrotation
          JOINT WristLeft
          {
            OFFSET 0.858087 -20.118410 -6.468135
            CHANNELS 3 Zrotation Xrotation Yrotation
            JOINT HandLeft
            {
              OFFSET 2.441431 -5.500973 -0.539794
              CHANNELS 3 Zrotation Xrotation Yrotation
              JOINT HandTipLeft
              {
                OFFSET -1.199213 -6.482010 -1.762419
                CHANNELS 3 Zrotation Xrotation Yrotation
                End Site
                {
                  OFFSET 0 0 0
                }
              }
              JOINT ThumbLeft
              {
                OFFSET -3.473737 1.755878 -2.017780
                CHANNELS 3 Zrotation Xrotation Yrotation
                End Site
                {
                  OFFSET 0 0 0
                }
              }
            }
          }
        }
      }
      JOINT ShoulderRight
      {
        OFFSET 17.101598 -2.857789 -0.627118
        CHANNELS 3 Zrotation Xrotation Yrotation
        JOINT ElbowRight
        {
          OFFSET 3.627077 -24.249064 -2.111964
          CHANNELS 3 Zrotation Xrotation Yrotation
          JOINT WristRight
          {
            OFFSET -0.839757 -20.685284 -7.609559
            CHANNELS 3 Zrotation Xrotation Yrotation
            JOINT HandRight
            {
              OFFSET -2.576509 -4.993027 -1.398267
              CHANNELS 3 Zrotation Xrotation Yrotation
              JOINT HandTipRight
              {
                OFFSET -0.119654 -6.797412 -1.854224
                CHANNELS 3 Zrotation Xrotation Yrotation
                End Site
                {
                  OFFSET 0 0 0
                }
              }
              JOINT ThumbRight
              {
                OFFSET -3.510829 1.572027 -0.669107
                CHANNELS 3 Zrotation Xrotation Yrotation
                End Site
                {
                  OFFSET 0 0 0
                }
              }
            }
          }
        }
      }
    }
  }
  JOINT HipLeft
  {
    OFFSET -7.488182 0.423159 -3.604590
    CHANNELS 3 Zrotation Xrotation Yrotation
    JOINT KneeLeft
    {
      OFFSET -1.326808 -26.838417 0.577858
      CHANNELS 3 Zrotation Xrotation Yrotation
      JOINT AnkleLeft
      {
        OFFSET 3.595524 -41.402403 13.183058
        CHANNELS 3 Zrotation Xrotation Yrotation
        JOINT FootLeft
        {
          OFFSET -2.169242 -7.414269 -10.190302
          CHANNELS 3 Zrotation Xrotation Yrotation
          End Site
          {
            OFFSET 0 0 0
          }
        }
      }
    }
  }
  JOINT HipRight
  {
    OFFSET 8.466841 0.662312 -3.519476
    CHANNELS 3 Zrotation Xrotation Yrotation
    JOINT KneeRight
    {
      OFFSET 6.507218 -32.160451 -2.149571
      CHANNELS 3 Zrotation Xrotation Yrotation
      JOINT AnkleRight
      {
        OFFSET 2.561636 -33.669880 -0.714027
        CHANNELS 3 Zrotation Xrotation Yrotation
        JOINT FootRight
        {
          OFFSET 0.792412 -8.837277 -10.045183
          CHANNELS 3 Zrotation Xrotation Yrotation
          End Site
          {
            OFFSET 0 0 0
          }
        }
      }
    }
  }
}
MOTION
Frames: 9
Frame Time: 0.033333
-58.124857 77.894738 421.194247 -0.000000 0.000000 -0.305648 -0.000000 0.000000 0.305648 -0.000000 0.000000 0.000000 -0.000000 0.000000 0.000000 0.000000 0.000000 0.000000 -0.000000 0.000000 0.000000 -0.000000 0.000000 0.000000 -0.000000 0.000000 0.000000 -0.000000 0.000000 0.000000 0.000000 0.000000 0.000000 0.000000 0.000000 0.000000 -0.000000 0.000000 0.000000 -0.000000 0.000000 0.000000 -0.000000 0.000000 0.000000 -0.000000 0.000000 0.000000 0.000000 0.000000 0.000000 0.000000 0.000000 0.000000 -0.000000 0.000000 0.305648 -0.000000 0.000000 0.000000 -0.000000 0.000000 0.000000 0.000000 0.000000 0.000000 -0.000000 0.000000 0.305648 -0.000000 0.000000 0.000000 -0.000000 0.000000 0.000000 0.000000 0.000000 0.000000
-58.143792 77.912921 421.113229 0.038995 0.159238 0.167514 -0.039461 -0.159123 -0.167623 -0.000000 0.000000 0.000000 -0.000000 0.000000 0.000000 0.000000 0.000000 0.000000 -0.000000 0.000000 0.000000 -0.000000 0.000000 0.000000 1.102975 0.215403 -0.014643 1.124834 -2.866738 -0.045084 0.000000 0.000000 0.000000 0.000000 0.000000 0.000000 -0.000000 0.000000 0.000000 -0.000000 0.000000 0.000000 -1.253147 -0.054084 0.376192 1.387821 -1.270465 -0.391751 0.000000 0.000000 0.000000 0.000000 0.000000 0.000000 -0.039461 -0.159123 -0.167623 -0.000000 0.000000 0.000000 -0.000000 0.000000 0.000000 0.000000 0.000000 0.000000 -0.039461 -0.159123 -0.167623 -0.000000 0.000000 0.000000 -0.000000 0.000000 0.000000 0.000000 0.000000 0.000000
-58.158250 77.929446 421.025352 0.077207 0.299783 0.591373 -0.080298 -0.298970 -0.591784 -0.000000 0.000000 0.000000 -0.000000 0.000000 0.000000 0.000000 0.000000 0.000000 -0.000000 0.000000 0.000000 0.663438 0.902193 -0.179543 1.267346 -0.377916 0.231884 2.582894 -5.294945 -0.167821 0.000000 0.000000 0.000000 0.000000 0.000000 0.000000 -0.000000 0.000000 0.000000 -0.000000 0.000000 0.000000 -2.314083 0.043530 0.620016 2.437511 -2.568353 -0.612065 0.000000 0.000000 0.000000 0.000000 0.000000 0.000000 -0.080298 -0.298970 -0.591784 -0.000000 0.000000 0.000000 -0.608872 0.755171 0.613400 0.000000 0.000000 0.000000 -0.080298 -0.298970 -0.591784 -0.000000 0.000000 0.000000 -0.747053 0.527172 0.895703 0.000000 0.000000 0.000000
-58.168230 77.944312 420.930615 0.114633 0.421602 0.965617 -0.121725 -0.419609 -0.966484 -0.000000 0.000000 0.000000 -0.000000 0.000000 0.000000 0.000000 0.000000 0.000000 -0.000000 0.000000 0.000000 0.930855 1.249636 -0.255147 1.535767 -0.329819 0.430475 4.307855 -7.201055 -0.392435 0.000000 0.000000 0.000000 0.000000 0.000000 0.000000 -0.000000 0.000000 0.000000 -0.473347 -0.909264 0.207862 -2.690957 1.222896 0.562701 3.142626 -3.892785 -0.653658 0.000000 0.000000 0.000000 0.000000 0.000000 0.000000 -0.121725 -0.419609 -0.966484 -0.000000 0.000000 0.000000 -0.764158 0.873049 0.790834 0.000000 0.000000 0.000000 -0.121725 -0.419609 -0.966484 -0.000000 0.000000 0.000000 -1.031276 0.671858 1.231297 0.000000 0.000000 0.000000
-58.173732 77.957520 420.829021 0.151269 0.524662 1.289995 -0.163049 -0.521122 -1.291429 -0.000000 0.000000 0.000000 -0.000000 0.000000 0.000000 0.000000 0.000000 0.000000 0.919435 -0.216458 -0.008076 0.235300 1.744533 -0.312860 1.547673 -0.130660 0.675691 6.233199 -8.543847 -0.742717 0.000000 0.000000 0.000000 0.000000 0.000000 0.000000 -0.000000 0.000000 0.000000 -0.604240 -1.060487 0.260578 -3.190325 1.812678 0.493697 3.497525 -5.245153 -0.513119 0.000000 0.000000 0.000000 0.000000 0.000000 0.000000 -0.163049 -0.521122 -1.291429 -0.000000 0.000000 0.000000 -0.809049 0.805551 0.871747 0.000000 0.000000 0.000000 -0.163049 -0.521122 -1.291429 0.097364 -0.933509 -0.072303 -1.354817 1.670039 1.585573 0.000000 0.000000 0.000000
-58.174758 77.969070 420.720567 0.187114 0.608935 1.564302 -0.203679 -0.603596 -1.566369 -0.000000 0.000000 0.000000 0.818437 0.500607 0.139088 0.000000 0.000000 0.000000 1.067120 -0.271745 -0.006769 0.268189 2.009321 -0.368019 1.302227 0.210956 0.963538 8.299454 -9.322636 -1.235208 0.000000 0.000000 0.000000 0.000000 0.000000 0.000000 -0.000000 0.000000 0.000000 -0.726247 -1.145885 0.307480 -3.463247 2.515616 0.278984 3.496696 -6.629217 -0.191269 0.000000 0.000000 0.000000 0.000000 0.000000 0.000000 -0.203679 -0.603596 -1.566369 -0.000000 0.000000 0.000000 -0.738998 0.547386 0.851866 0.000000 0.000000 0.000000 -0.203679 -0.603596 -1.566369 0.079530 -1.022988 -0.078819 -1.499597 1.747814 1.780275 0.000000 0.000000 0.000000
-58.144635 77.979734 420.616826 0.250628 0.683479 1.845869 -0.272532 -0.675044 -1.848969 -0.000000 0.000000 0.000000 1.056884 0.641301 0.178042 0.000000 0.000000 0.000000 0.885682 -0.375560 0.010468 0.898915 2.176835 -0.538192 -0.690015 0.335766 1.318460 13.774909 -8.686264 -2.423276 0.000000 0.000000 0.000000 0.000000 0.000000 0.000000 -0.000000 0.000000 0.000000 -0.782667 -1.184978 0.329101 -3.596834 3.789285 -0.257593 3.225371 -7.989770 0.517567 0.000000 0.000000 0.000000 0.000000 0.000000 0.000000 -0.272532 -0.675044 -1.848969 -0.000000 0.000000 0.000000 -0.000000 0.000000 0.000000 0.000000 0.000000 0.000000 -0.200794 -1.509525 -2.022539 -0.116361 -0.174245 0.099621 -1.400711 1.611586 1.764650 0.000000 0.000000 0.000000
-58.133279 77.987211 420.494036 0.286745 0.716528 1.962985 -0.311144 -0.706276 -1.966696 -0.000000 0.000000 0.000000 1.391212 0.700970 0.225786 0.000000 0.000000 0.000000 0.993337 -0.490134 0.019757 0.906081 2.493992 -0.582072 -1.350223 1.728228 2.088357 14.901062 -10.191851 -2.939020 0.000000 0.000000 0.000000 0.000000 0.000000 0.000000 -0.000000 0.000000 0.000000 -0.892640 -1.186178 0.368587 -3.372310 4.690111 -0.752013 2.056094 -10.500738 1.209630 0.000000 0.000000 0.000000 0.000000 0.000000 0.000000 -0.311144 -0.706276 -1.966696 -0.000000 0.000000 0.000000 -0.000000 0.000000 0.000000 0.000000 0.000000 0.000000 -0.228222 -1.651043 -2.163240 -0.197620 0.039758 0.133084 -1.362677 1.326335 1.767554 0.000000 0.000000 0.000000
-58.120784 77.987678 420.362238 0.316399 0.723732 2.103108 -0.342771 -0.711621 -2.107235 -0.000000 0.000000 0.000000 1.769588 0.658871 0.275053 0.000000 0.000000 0.000000 1.228298 -0.518164 0.015779 0.520561 2.558824 -0.523391 -2.061733 2.297223 2.399001 14.832699 -8.683317 -3.651687 0.000000 0.000000 0.000000 0.000000 0.000000 0.000000 -0.000000 0.000000 0.000000 -1.035273 -1.040396 0.414929 -2.028388 4.798002 -1.320888 -0.164228 -10.732445 1.801124 0.000000 0.000000 0.000000 0.000000 0.000000 0.000000 -0.342771 -0.711621 -2.107235 -0.002877 -0.821066 -0.072078 0.127428 -0.223109 0.207884 0.000000 0.000000 0.000000 -0.248473 -1.778097 -2.329135 -0.137575 1.061760 0.225223 -1.456146 0.131778 1.668358 0.000000 0.000000 0.000000
